PathFileType	4	(X/Y/Z)	C:\Users\WrightLab\Desktop\Jo\P2_Trial21.trc
DataRate	CameraRate	NumFrames	NumMarkers	Units	OrigDataRate	OrigDataStartFrame	OrigNumFrames
100.00	100.00	       14	19	mm	100.00	301	       600
Frame#	Time	Headset_Front			Headset_Back			Headset_Left			Headset_Right			Left_Shoulder			Right_Shoulder			Sternum			C7			Left Elbow			Right Elbow			Left Wrist			Right Wrist			Left ASIS			Right ASIS			S2			Left Knee			Right Knee			Left Ankle			Right Ankle			
		X1	Y1	Z1	X2	Y2	Z2	X3	Y3	Z3	X4	Y4	Z4	X5	Y5	Z5	X6	Y6	Z6	X7	Y7	Z7	X8	Y8	Z8	X9	Y9	Z9	X10	Y10	Z10	X11	Y11	Z11	X12	Y12	Z12	X13	Y13	Z13	X14	Y14	Z14	X15	Y15	Z15	X16	Y16	Z16	X17	Y17	Z17	X18	Y18	Z18	X19	Y19	Z19	

301	3.000	-5.01051	1438.65161	812.53174	-148.94722	1663.19763	658.39459	-17.22169	1552.64758	637.02325	-128.49767	1523.10425	836.77625	-137.54819	1417.34363	518.68146	-240.11252	1424.93457	816.26672	-127.96989	1298.17126	691.53284	-295.34210	1410.08887	644.17859	-106.99021	1164.99963	346.48401										-64.47602	1013.42792	653.15729	-117.64799	991.39655	773.35559	-319.24573	923.70349	581.23517	-20.94365	455.92688	601.69568	-401.31494	516.03027	747.86169	148.54224	172.52913	680.83966				
302	3.010	3.79035	1437.71387	819.46698	-139.33949	1661.06128	663.93762	-7.48678	1551.00513	642.75049	-118.92611	1521.50708	842.41980	-127.09851	1415.40686	525.06769	-230.88054	1423.14429	822.12366	-118.09201	1296.28979	697.93176	-285.17450	1408.28455	649.68671	-95.41711	1163.46802	353.33609										-53.43562	1012.23419	661.27429	-107.07587	989.50897	780.53735	-307.13895	921.21387	587.21027	-10.00212	456.30267	612.82208	-392.57965	513.95642	753.28070	164.42618	180.07048	692.11359				
303	3.020	13.02512	1436.38806	825.68958	-130.59270	1660.44397	669.97473	2.32820	1550.28772	649.83173	-110.35346	1520.14734	848.56244	-116.10269	1413.70898	531.59241	-221.89807	1421.71106	827.92828	-107.63749	1294.76282	704.97913	-275.06839	1406.53613	654.55084	-83.15791	1160.90845	360.36826										-41.95471	1011.73248	670.04645	-96.95778	987.24884	788.88281	-294.96552	919.63025	592.73450	2.13725	455.68103	623.34534	-382.56921	511.80185	758.37421	-296.85892	918.92896	521.03510				
304	3.030	22.32231	1436.08374	832.52545	-120.17415	1659.76062	675.86414	12.47317	1550.01782	656.93304	-101.35372	1519.68811	854.58533	-105.19201	1412.54565	537.27692	-213.36116	1421.45300	833.45258	-98.18662	1294.18542	711.14001	-265.30078	1405.37158	660.06378	-71.07803	1159.18994	367.57059										-30.46943	1011.51532	678.58783	-86.28771	986.55707	796.02594	-283.02576	918.28040	598.48090	15.14617	455.51523	633.57861	-371.69391	509.55911	762.70093	-286.00140	916.44885	528.38721				
305	3.040	31.41360	1435.66406	839.57666	-109.54691	1659.52661	682.37585	22.62056	1549.14648	664.79315	-92.20259	1519.41675	860.87592	-93.99953	1411.80298	543.42944	-204.84482	1421.76929	839.39850	-88.55505	1294.05225	718.18286	-255.25708	1404.84900	665.33325	-57.82330	1157.99524	374.73459										-19.66100	1010.86456	685.92377	-76.36642	985.31622	804.20032	-271.38776	918.03882	604.30872	28.19256	457.34528	642.75366	-359.74103	507.63492	767.79401	-274.71234	915.94135	536.15192				
306	3.050	40.34588	1436.04102	846.99933	-99.93427	1660.14392	689.30261	32.57983	1549.27576	671.28339	-83.16800	1519.94336	867.60791	-82.57111	1411.04663	549.96185	-195.36797	1422.04053	845.34912	-78.67239	1295.03528	724.73700	-245.42407	1405.20056	670.84302	-44.84116	1157.97205	382.02618										-7.94788	1011.66962	693.58435	-66.44430	984.29132	811.74536	-259.61377	918.67340	609.25189	41.89205	460.35468	650.46478	-345.24707	506.72079	770.95081	-264.48672	917.14703	546.15540				
307	3.060	49.51785	1436.28247	853.79834	-89.95597	1660.81738	695.99060	42.57555	1550.04504	678.79156	-74.08290	1520.33923	874.25885	-71.43370	1410.91272	556.68445	-187.03113	1422.52527	851.31842	-69.73306	1295.27332	732.52625	-235.46188	1405.67065	676.21973	-30.81885	1158.28918	389.64835										2.28890	1012.15839	701.97003	-57.21312	984.60162	818.88916	-247.94238	919.73370	614.26813	55.76169	462.87671	658.98706	-330.01926	505.46820	774.24377	-253.76414	917.24139	552.69354				
308	3.070	57.12667	1435.70459	860.55603	-80.71492	1661.49976	702.52563	52.30495	1550.92346	685.51428	-65.57294	1520.48132	880.27844	-61.01527	1410.94299	563.96796	-178.97653	1423.65991	857.54248	-60.99728	1295.86267	740.22638	-225.73148	1406.33923	681.82990	-16.75941	1159.30481	397.72186										12.83803	1013.43329	710.70667	-47.81867	984.88550	826.31665	-236.45444	920.57660	619.17633	70.18510	467.45959	666.66052	-314.43573	504.50137	778.64001	-243.52147	917.84119	561.38275				
309	3.080	65.55476	1436.38342	867.73535	-71.11999	1662.10254	709.06549	61.74500	1551.88733	693.27295	-57.15610	1520.96301	886.82849	-49.79405	1412.05078	571.15118	-170.16597	1424.80725	863.53204	-51.79293	1296.84009	746.90100	-216.06409	1407.71411	687.47089	-2.69686	1161.07581	406.02902										22.73948	1015.03876	718.45471	-38.43325	986.55518	834.20770	-225.37617	921.39972	624.63800	83.67627	470.25687	677.80963	-297.25839	503.62344	782.43195	-232.69389	918.71771	567.14258				
310	3.090	73.75428	1436.86316	874.66956	-61.90084	1663.34253	716.10443	72.72080	1552.22339	700.79346	-50.09583	1521.95215	893.66150	-39.49619	1413.77930	578.60358	-161.85718	1426.14099	868.59155	-42.32572	1297.83826	754.66321	-206.49895	1409.12756	692.96973	12.32166	1163.10266	414.16122										30.91408	1016.32373	726.98022	-29.60705	987.78394	841.36237	-214.44479	922.21991	630.21942	98.59736	472.73175	686.20105	-279.52319	503.22046	785.52020	251.57201	204.43460	766.00940				
311	3.100	81.70892	1439.04346	883.15442	-52.80239	1664.52185	722.64435	81.65939	1553.58130	708.95728	-42.58324	1522.52039	900.28809	-29.04624	1415.49915	585.71228	-154.86942	1427.67578	874.88788	-33.62622	1299.08875	761.45081	-197.55214	1410.43237	698.11920	24.59402	1163.73865	423.18396										40.22684	1018.76343	733.12811	-21.73859	990.07336	848.67914	-204.43968	923.51270	636.42810	113.54398	475.35541	694.21643	-262.57336	502.15015	784.49628	256.81183	197.91057	777.62274				
312	3.110	88.72015	1439.73438	889.71552	-44.74579	1666.55554	729.88422	88.40902	1555.51770	716.49640	-35.16963	1523.88074	907.35028	-18.60614	1417.24634	592.82056	-147.31087	1428.84070	880.10559	-24.66650	1300.69092	768.06158	-188.38567	1411.76416	703.27313	39.69977	1165.73450	433.11005										49.23075	1021.42065	741.03674	-13.09433	993.67346	856.67389	-194.49823	925.03503	641.92316	128.30571	477.80890	701.22778	-244.73169	502.94659	788.81079	256.52698	190.58533	782.90973				
313	3.120	96.89578	1441.82568	897.79749	-36.46905	1668.40698	737.09845	101.53117	1556.60486	727.42853	-27.65852	1526.00378	914.55444	-8.61130	1420.00146	599.99146	-140.50819	1430.87769	885.43896	-16.53473	1303.18909	775.13733	-179.24548	1413.78564	707.99689	54.81388	1167.49194	443.15427										57.81574	1023.65405	748.51190	-6.02455	995.91034	863.10803	-184.51909	926.72955	646.86194	143.19261	480.30658	708.04608	-226.10248	504.78973	791.77722	256.99567	184.90388	789.06000				
314	3.130	104.20424	1443.83411	905.82953	-28.46485	1670.33643	744.13141	109.69550	1559.18127	734.80237	-20.34917	1527.86145	921.72339	2.01650	1422.07312	607.44684	-134.72604	1432.68115	890.74829	-8.12256	1305.24438	782.05914	-170.50092	1415.10925	712.78455	69.86659	1169.69922	451.41165										65.91275	1025.85071	756.19934	1.46782	998.01617	869.56879	-175.50800	928.60950	652.43616	159.04471	483.08725	713.33063	-206.58481	506.75803	797.90936	256.88684	177.34807	795.33673				
